HIERARCHY
ROOT mixamorig:Hips
{
	OFFSET 0.000000 201.639420 0.000000
	CHANNELS 6 Xposition Yposition Zposition Xrotation Yrotation Zrotation
	JOINT mixamorig:Spine
	{
		OFFSET 0.006200 19.524994 -2.481800
		CHANNELS 3 Xrotation Yrotation Zrotation
		JOINT mixamorig:Spine1
		{
			OFFSET -0.000900 22.835007 -2.825400
			CHANNELS 3 Xrotation Yrotation Zrotation
			JOINT mixamorig:Spine2
			{
				OFFSET -0.020600 26.552490 -3.193300
				CHANNELS 3 Xrotation Yrotation Zrotation
				JOINT mixamorig:Neck
				{
					OFFSET -0.060000 30.701813 1.352200
					CHANNELS 3 Xrotation Yrotation Zrotation
					JOINT mixamorig:Head
					{
						OFFSET -0.087200 22.547607 3.670900
						CHANNELS 3 Xrotation Yrotation Zrotation
						JOINT mixamorig:HeadTop_End
						{
							OFFSET -0.830600 40.355194 7.893500
							CHANNELS 3 Xrotation Yrotation Zrotation
							End Site
							{
								OFFSET 0.000000 30.592346 0.000000
							}
						}
						JOINT mixamorig:RightEye
						{
							OFFSET -6.302100 18.118591 16.197100
							CHANNELS 3 Xrotation Yrotation Zrotation
							End Site
							{
								OFFSET 0.000000 30.592346 0.000000
							}
						}
						JOINT mixamorig:LeftEye
						{
							OFFSET 6.741500 18.382690 16.401899
							CHANNELS 3 Xrotation Yrotation Zrotation
							End Site
							{
								OFFSET 0.000000 30.592346 0.000000
							}
						}
					}
				}
				JOINT mixamorig:LeftShoulder
				{
					OFFSET 11.924900 18.230499 1.425400
					CHANNELS 3 Xrotation Yrotation Zrotation
					JOINT mixamorig:LeftArm
					{
						OFFSET 25.435989 -0.697632 -5.229300
						CHANNELS 3 Xrotation Yrotation Zrotation
						JOINT mixamorig:LeftForeArm
						{
							OFFSET 54.684776 0.000000 0.000000
							CHANNELS 3 Xrotation Yrotation Zrotation
							JOINT mixamorig:LeftHand
							{
								OFFSET 55.098175 0.000000 0.000000
								CHANNELS 3 Xrotation Yrotation Zrotation
								JOINT mixamorig:LeftHandMiddle1
								{
									OFFSET 23.369751 0.000000 0.000000
									CHANNELS 3 Xrotation Yrotation Zrotation
									JOINT mixamorig:LeftHandMiddle2
									{
										OFFSET 6.378677 0.000000 0.000000
										CHANNELS 3 Xrotation Yrotation Zrotation
										JOINT mixamorig:LeftHandMiddle3
										{
											OFFSET 6.148331 0.000000 0.000000
											CHANNELS 3 Xrotation Yrotation Zrotation
											JOINT mixamorig:LeftHandMiddle4
											{
												OFFSET 6.582504 0.000000 0.000000
												CHANNELS 3 Xrotation Yrotation Zrotation
												End Site
												{
													OFFSET -1.168900 6.395691 1.028606
												}
											}
										}
									}
								}
								JOINT mixamorig:LeftHandThumb1
								{
									OFFSET 7.235672 -3.848206 5.434273
									CHANNELS 3 Xrotation Yrotation Zrotation
									JOINT mixamorig:LeftHandThumb2
									{
										OFFSET 6.568451 -3.792297 3.792300
										CHANNELS 3 Xrotation Yrotation Zrotation
										JOINT mixamorig:LeftHandThumb3
										{
											OFFSET 6.063080 -3.500519 3.500518
											CHANNELS 3 Xrotation Yrotation Zrotation
											JOINT mixamorig:LeftHandThumb4
											{
												OFFSET 4.793182 -2.767334 2.767349
												CHANNELS 3 Xrotation Yrotation Zrotation
												End Site
												{
													OFFSET 0.101639 6.054260 1.275483
												}
											}
										}
									}
								}
								JOINT mixamorig:LeftHandIndex1
								{
									OFFSET 23.101074 -0.309540 4.992809
									CHANNELS 3 Xrotation Yrotation Zrotation
									JOINT mixamorig:LeftHandIndex2
									{
										OFFSET 6.226883 0.000000 0.000000
										CHANNELS 3 Xrotation Yrotation Zrotation
										JOINT mixamorig:LeftHandIndex3
										{
											OFFSET 6.094330 0.000000 0.000000
											CHANNELS 3 Xrotation Yrotation Zrotation
											JOINT mixamorig:LeftHandIndex4
											{
												OFFSET 5.482605 0.000000 0.000000
												CHANNELS 3 Xrotation Yrotation Zrotation
												End Site
												{
													OFFSET -1.427902 5.233032 0.797164
												}
											}
										}
									}
								}
								JOINT mixamorig:LeftHandRing1
								{
									OFFSET 22.299240 0.021149 -3.964172
									CHANNELS 3 Xrotation Yrotation Zrotation
									JOINT mixamorig:LeftHandRing2
									{
										OFFSET 6.321869 0.000000 0.000000
										CHANNELS 3 Xrotation Yrotation Zrotation
										JOINT mixamorig:LeftHandRing3
										{
											OFFSET 5.899796 0.000000 0.000000
											CHANNELS 3 Xrotation Yrotation Zrotation
											JOINT mixamorig:LeftHandRing4
											{
												OFFSET 6.517899 0.000000 0.000000
												CHANNELS 3 Xrotation Yrotation Zrotation
												End Site
												{
													OFFSET -1.637299 6.232208 0.980890
												}
											}
										}
									}
								}
								JOINT mixamorig:LeftHandPinky1
								{
									OFFSET 20.463791 -0.302338 -8.562233
									CHANNELS 3 Xrotation Yrotation Zrotation
									JOINT mixamorig:LeftHandPinky2
									{
										OFFSET 6.908646 0.000000 0.000000
										CHANNELS 3 Xrotation Yrotation Zrotation
										JOINT mixamorig:LeftHandPinky3
										{
											OFFSET 4.622849 0.000000 0.000000
											CHANNELS 3 Xrotation Yrotation Zrotation
											JOINT mixamorig:LeftHandPinky4
											{
												OFFSET 5.216080 0.000000 0.000000
												CHANNELS 3 Xrotation Yrotation Zrotation
												End Site
												{
													OFFSET -0.606308 5.116241 0.814926
												}
											}
										}
									}
								}
							}
						}
					}
				}
				JOINT mixamorig:RightShoulder
				{
					OFFSET -12.001300 18.284088 1.348900
					CHANNELS 3 Xrotation Yrotation Zrotation
					JOINT mixamorig:RightArm
					{
						OFFSET -25.308500 -0.751312 -5.164599
						CHANNELS 3 Xrotation Yrotation Zrotation
						JOINT mixamorig:RightForeArm
						{
							OFFSET -54.684429 0.000000 0.000000
							CHANNELS 3 Xrotation Yrotation Zrotation
							JOINT mixamorig:RightHand
							{
								OFFSET -55.150291 0.000000 0.000000
								CHANNELS 3 Xrotation Yrotation Zrotation
								JOINT mixamorig:RightHandMiddle1
								{
									OFFSET -23.317566 0.000000 0.000000
									CHANNELS 3 Xrotation Yrotation Zrotation
									JOINT mixamorig:RightHandMiddle2
									{
										OFFSET -6.378403 0.000000 0.000000
										CHANNELS 3 Xrotation Yrotation Zrotation
										JOINT mixamorig:RightHandMiddle3
										{
											OFFSET -6.148193 0.000000 0.000000
											CHANNELS 3 Xrotation Yrotation Zrotation
											JOINT mixamorig:RightHandMiddle4
											{
												OFFSET -6.583389 0.000000 0.000000
												CHANNELS 3 Xrotation Yrotation Zrotation
												End Site
												{
													OFFSET 1.171692 6.395905 1.029786
												}
											}
										}
									}
								}
								JOINT mixamorig:RightHandThumb1
								{
									OFFSET -7.190521 -3.860474 5.435846
									CHANNELS 3 Xrotation Yrotation Zrotation
									JOINT mixamorig:RightHandThumb2
									{
										OFFSET -6.567429 -3.791718 3.791708
										CHANNELS 3 Xrotation Yrotation Zrotation
										JOINT mixamorig:RightHandThumb3
										{
											OFFSET -6.062469 -3.500153 3.500166
											CHANNELS 3 Xrotation Yrotation Zrotation
											JOINT mixamorig:RightHandThumb4
											{
												OFFSET -4.792618 -2.767029 2.767022
												CHANNELS 3 Xrotation Yrotation Zrotation
												End Site
												{
													OFFSET -0.100327 6.053253 1.276754
												}
											}
										}
									}
								}
								JOINT mixamorig:RightHandIndex1
								{
									OFFSET -23.048981 -0.310791 4.992554
									CHANNELS 3 Xrotation Yrotation Zrotation
									JOINT mixamorig:RightHandIndex2
									{
										OFFSET -6.227539 0.000000 0.000000
										CHANNELS 3 Xrotation Yrotation Zrotation
										JOINT mixamorig:RightHandIndex3
										{
											OFFSET -6.095047 0.000000 0.000000
											CHANNELS 3 Xrotation Yrotation Zrotation
											JOINT mixamorig:RightHandIndex4
											{
												OFFSET -5.484772 0.000000 0.000000
												CHANNELS 3 Xrotation Yrotation Zrotation
												End Site
												{
													OFFSET 1.420593 5.237305 0.797056
												}
											}
										}
									}
								}
								JOINT mixamorig:RightHandRing1
								{
									OFFSET -22.246323 0.020569 -3.963762
									CHANNELS 3 Xrotation Yrotation Zrotation
									JOINT mixamorig:RightHandRing2
									{
										OFFSET -6.322128 0.000000 0.000000
										CHANNELS 3 Xrotation Yrotation Zrotation
										JOINT mixamorig:RightHandRing3
										{
											OFFSET -5.900024 0.000000 0.000000
											CHANNELS 3 Xrotation Yrotation Zrotation
											JOINT mixamorig:RightHandRing4
											{
												OFFSET -6.518356 0.000000 0.000000
												CHANNELS 3 Xrotation Yrotation Zrotation
												End Site
												{
													OFFSET 1.636398 6.232697 0.982186
												}
											}
										}
									}
								}
								JOINT mixamorig:RightHandPinky1
								{
									OFFSET -20.411011 -0.303314 -8.561701
									CHANNELS 3 Xrotation Yrotation Zrotation
									JOINT mixamorig:RightHandPinky2
									{
										OFFSET -6.907349 0.000000 0.000000
										CHANNELS 3 Xrotation Yrotation Zrotation
										JOINT mixamorig:RightHandPinky3
										{
											OFFSET -4.623840 0.000000 0.000000
											CHANNELS 3 Xrotation Yrotation Zrotation
											JOINT mixamorig:RightHandPinky4
											{
												OFFSET -5.218353 0.000000 0.000000
												CHANNELS 3 Xrotation Yrotation Zrotation
												End Site
												{
													OFFSET 0.602097 5.118835 0.816273
												}
											}
										}
									}
								}
							}
						}
					}
				}
			}
		}
	}
	JOINT mixamorig:LeftUpLeg
	{
		OFFSET 18.168400 -13.561905 -0.039000
		CHANNELS 3 Xrotation Yrotation Zrotation
		JOINT mixamorig:LeftLeg
		{
			OFFSET 0.577358 -80.825211 -3.695000
			CHANNELS 3 Xrotation Yrotation Zrotation
			JOINT mixamorig:LeftFoot
			{
				OFFSET -0.577356 -83.370262 -6.520700
				CHANNELS 3 Xrotation Yrotation Zrotation
				JOINT mixamorig:LeftToeBase
				{
					OFFSET 0.750401 -20.798306 25.135401
					CHANNELS 3 Xrotation Yrotation Zrotation
					JOINT mixamorig:LeftToe_End
					{
						OFFSET -0.000500 0.001200 19.917799
						CHANNELS 3 Xrotation Yrotation Zrotation
						End Site
						{
							OFFSET 0.000000 19.917805 0.000000
						}
					}
				}
			}
		}
	}
	JOINT mixamorig:RightUpLeg
	{
		OFFSET -18.162500 -13.585098 -0.041000
		CHANNELS 3 Xrotation Yrotation Zrotation
		JOINT mixamorig:RightLeg
		{
			OFFSET -0.595024 -80.945297 -3.631900
			CHANNELS 3 Xrotation Yrotation Zrotation
			JOINT mixamorig:RightFoot
			{
				OFFSET 0.595024 -83.218193 -6.561200
				CHANNELS 3 Xrotation Yrotation Zrotation
				JOINT mixamorig:RightToeBase
				{
					OFFSET -0.753601 -20.807106 25.115000
					CHANNELS 3 Xrotation Yrotation Zrotation
					JOINT mixamorig:RightToe_End
					{
						OFFSET 0.000299 0.001700 19.918200
						CHANNELS 3 Xrotation Yrotation Zrotation
						End Site
						{
							OFFSET 0.000000 19.918203 0.000000
						}
					}
				}
			}
		}
	}
}
MOTION
Frames: 4
Frame Time: 0.033333
1.422484 180.556580 -0.223708 3.412105 -11.368391 -3.070463 5.224547 1.768099 -0.701496 -0.538390 3.968990 0.017922 -0.529065 3.964175 0.054995 18.276890 1.325599 -4.964535 16.655918 29.533250 -21.397203 -0.000001 0.000000 0.000001 -0.000001 0.000000 0.000001 -0.000001 0.000000 0.000001 -3.244981 -33.597253 -23.592927 4.590610 33.335551 -42.888643 0.000031 -58.418738 0.000029 -73.733053 -8.937576 -20.976720 2.510715 5.320201 -50.624242 2.711161 5.478558 -52.632475 0.731104 3.092623 -26.596374 0.000001 -0.000004 -0.000000 -13.332516 16.587130 6.564259 -3.903611 3.527277 -6.563504 9.524344 6.805715 5.027870 -0.000001 0.000001 0.000003 1.479262 4.270652 -37.210447 6.528909 6.872206 -87.058342 0.084869 1.080020 -8.987257 -0.000000 -0.000001 -0.000003 2.275931 5.118469 -47.939421 6.354624 6.861124 -85.600773 1.592067 4.408070 -39.700676 -0.000002 -0.000001 0.000002 7.458034 7.975047 -63.360632 4.896376 2.503106 -73.247700 0.160024 1.478764 -12.351752 -0.000001 -0.000000 -0.000002 0.553308 5.420197 -1.775791 20.710510 49.903807 52.911392 -0.000035 64.512960 0.000053 -7.401945 17.342762 -11.840328 -2.672310 2.151024 32.970317 2.153690 -5.034824 46.296392 0.268733 -1.686584 14.107618 -0.000001 0.000000 0.000002 -1.838391 -17.987354 12.011242 12.413900 -20.037634 1.736457 8.849200 -12.438575 -0.470104 -0.000001 -0.000000 -0.000000 -0.306906 -3.276199 53.497563 2.733549 -5.528946 52.589141 0.078241 -1.042174 8.584814 0.000002 0.000000 0.000003 -0.460494 0.120036 19.509162 1.230121 -3.953865 34.552045 0.345987 -1.861965 15.680719 -0.000001 -0.000001 0.000001 0.412915 -2.395419 16.883196 0.797946 -3.239189 27.671161 0.029817 -0.644512 5.296518 0.000001 0.000002 0.000000 -47.585979 1.102774 13.705185 45.978218 -7.617719 5.079756 -2.338460 0.648815 -10.139026 -0.653207 0.000003 0.000003 0.000000 -0.000001 -0.000000 -6.992892 -10.815753 -9.744531 34.657124 -8.995912 -6.355726 -26.321814 -7.056605 16.646791 -1.260892 -0.000028 -0.000002 -0.000000 -0.000001 0.000001 
0.727057 180.026642 0.205017 2.074147 -10.740464 -3.269910 5.022125 1.746332 -0.670839 -0.550416 3.960105 0.018517 -0.541010 3.954736 0.056376 17.725104 1.340963 -5.214641 15.357786 30.093079 -22.337633 -0.000002 0.000001 -0.000000 -0.000002 0.000001 -0.000000 -0.000002 0.000001 -0.000000 -3.272322 -33.686698 -23.647201 5.125897 33.030409 -42.572030 0.000037 -59.354774 0.000046 -73.546357 -9.052861 -19.808459 2.491137 5.304084 -50.333249 2.646020 5.428395 -51.946713 0.652685 2.930932 -25.103438 0.000002 0.000001 0.000002 -13.059908 16.630445 7.198517 -3.903613 3.527271 -6.563508 9.522441 6.770815 5.024642 -0.000002 -0.000002 0.000001 1.481576 4.274468 -37.012437 6.477838 6.869410 -86.631613 0.096461 1.150863 -9.582227 -0.000001 -0.000002 -0.000002 2.234783 5.081199 -47.543980 6.177804 6.845314 -84.119012 1.530587 4.333179 -38.893997 -0.000002 -0.000001 0.000004 7.495818 7.968665 -63.678851 4.799775 2.473273 -72.406487 0.172391 1.534154 -12.822294 0.000002 0.000000 -0.000002 0.566125 4.992479 -2.547805 21.155044 52.969603 51.841037 -0.000009 61.155834 0.000027 -10.390900 23.069485 -15.477938 -2.215971 1.318781 33.493287 2.117871 -5.000502 45.887079 0.256598 -1.666108 13.918292 -0.000001 -0.000003 0.000003 -1.838390 -17.987358 12.011239 12.413898 -20.037634 1.736452 8.849203 -12.438575 -0.470105 0.000001 0.000000 -0.000001 -0.306909 -3.276198 53.497559 2.733549 -5.528944 52.589144 0.078233 -1.042176 8.584815 0.000003 0.000001 -0.000004 0.080493 -1.434426 19.706308 1.171741 -3.867941 33.696175 0.275000 -1.814983 15.147131 -0.000000 0.000000 -0.000002 0.809924 -3.596495 17.916472 0.773898 -3.192953 27.242370 0.025395 -0.594902 4.887626 0.000000 0.000004 0.000001 -46.683882 1.085025 13.727403 47.013213 -8.228342 5.152344 -3.001066 0.711574 -10.130999 -0.722306 -0.000003 0.000002 0.000000 -0.000001 0.000000 -5.549205 -11.226063 -9.637706 35.425589 -8.983201 -6.371845 -27.156958 -7.416367 16.282749 -1.369831 -0.000001 -0.000001 -0.000000 -0.000001 -0.000000 
0.105246 178.553345 0.648115 0.183929 -10.431448 -3.677698 4.988630 1.747231 -0.576326 -0.493904 3.956111 0.051000 -0.484446 3.956265 0.089270 17.355437 1.373663 -5.179698 14.239151 30.802702 -23.060129 -0.000000 0.000001 -0.000000 -0.000000 0.000001 -0.000000 -0.000000 0.000001 -0.000000 -3.250615 -34.116853 -23.359057 4.754461 32.705200 -42.672304 0.000027 -59.019221 0.000024 -72.777762 -9.245124 -19.692134 2.445133 5.265718 -49.875469 2.634349 5.419300 -51.823377 0.593305 2.800894 -23.916252 -0.000000 0.000001 0.000002 -13.079173 16.909281 7.497051 -3.903608 3.527275 -6.563505 9.520564 6.736203 5.021378 -0.000001 0.000004 0.000003 1.494642 4.291482 -37.069817 6.428506 6.866358 -86.219001 0.102089 1.183706 -9.858592 -0.000000 -0.000001 -0.000001 2.209990 5.058415 -47.307485 6.118547 6.839013 -83.621617 1.490188 4.282747 -38.356177 0.000000 -0.000001 0.000002 7.552588 7.961605 -64.120559 4.729903 2.450731 -71.795492 0.181092 1.571895 -13.143581 -0.000002 0.000002 -0.000002 0.491310 6.896249 -0.660835 28.685599 56.682709 41.679932 0.000012 52.431066 -0.000013 -15.141587 24.196848 -16.165540 -1.619698 1.265906 28.516441 1.952854 -4.835655 43.962550 0.243787 -1.637044 13.659494 0.000004 0.000002 -0.000002 -1.838389 -17.987361 12.011244 12.413902 -20.037641 1.736456 8.849196 -12.438574 -0.470106 -0.000002 0.000000 -0.000001 -0.306908 -3.276198 53.497559 2.733548 -5.528944 52.589147 0.078241 -1.042172 8.584814 0.000002 -0.000001 0.000002 0.635170 -3.143673 16.589546 0.957133 -3.525618 30.368554 0.172227 -1.738745 14.325371 -0.000000 -0.000002 -0.000000 1.447315 -5.707265 17.077944 0.713548 -3.073101 26.138159 0.025288 -0.593578 4.876887 -0.000001 -0.000004 -0.000000 -46.009189 0.811335 13.905586 49.661435 -8.523171 5.465383 -4.439644 0.851447 -10.250217 -0.838774 -0.000001 0.000002 -0.000000 -0.000001 -0.000000 -3.928853 -11.600292 -9.847138 36.999251 -8.721436 -6.467235 -28.579926 -7.375153 17.468055 -1.645476 0.000001 -0.000013 -0.000000 0.000001 -0.000000 
-0.309013 176.665436 1.084800 -1.772805 -10.408466 -4.182903 5.097190 1.800661 -0.422035 -0.408413 3.968668 0.137358 -0.399208 3.981420 0.174949 17.057802 1.416919 -4.966510 12.746365 31.624483 -23.407255 -0.000003 0.000000 -0.000001 -0.000003 0.000000 -0.000001 -0.000003 0.000000 -0.000001 -3.130868 -34.466986 -22.779693 3.338071 32.401465 -43.326403 0.000000 -57.914902 -0.000020 -71.560186 -9.380955 -20.277336 2.396704 5.224564 -49.404971 2.667497 5.445094 -52.173681 0.571826 2.751964 -23.472488 -0.000000 0.000002 -0.000000 -13.338147 17.322101 7.507362 -3.903612 3.527276 -6.563506 9.518640 6.700577 5.018102 0.000006 -0.000000 -0.000001 1.499382 4.297062 -37.216775 6.375192 6.862639 -85.772908 0.104789 1.199137 -9.988464 -0.000000 0.000002 0.000001 2.203338 5.052263 -47.242848 6.117109 6.838875 -83.609514 1.478521 4.268021 -38.199783 -0.000002 -0.000001 0.000002 7.606736 7.956064 -64.521771 4.688919 2.437131 -71.436327 0.186634 1.595367 -13.343502 -0.000002 0.000001 -0.000007 0.073736 10.611088 3.119748 44.322525 58.447240 24.526323 0.000010 40.336232 -0.000022 -21.817178 21.863266 -11.223695 -1.111509 1.715868 20.748323 1.676034 -4.532108 40.573588 0.228476 -1.584355 13.206161 0.000005 0.000004 0.000001 -1.838389 -17.987358 12.011245 12.413902 -20.037639 1.736453 8.849198 -12.438574 -0.470105 0.000002 -0.000000 -0.000000 -0.306911 -3.276195 53.497556 2.733550 -5.528940 52.589147 0.078241 -1.042173 8.584814 -0.000004 0.000002 0.000001 0.756766 -4.465883 11.153690 0.702114 -3.049710 25.923894 0.062611 -1.637122 13.310491 -0.000001 0.000001 0.000000 1.881455 -7.840320 14.884188 0.636938 -2.912037 24.671152 0.026298 -0.605397 4.973901 -0.000001 -0.000000 -0.000000 -45.529577 0.442656 14.150471 52.879816 -8.504253 5.908399 -6.148483 1.020084 -10.436074 -0.978602 0.000002 -0.000005 0.000000 -0.000001 -0.000000 -2.931344 -11.902445 -10.091534 39.698654 -8.887580 -6.735845 -30.523545 -6.898018 17.949867 -2.016130 -0.000021 -0.000001 -0.000000 0.000001 -0.000000 
